<svg width="3600" height="3600" viewBox="0 0 3600 3600" fill="none" xmlns="http://www.w3.org/2000/svg">
<rect width="3600" height="3600" rx="505" fill="white"/>
<path d="M2696.92 2592.38C1684.93 3074 1056.87 2671.04 654.834 2426.29C629.956 2410.86 587.672 2429.89 624.359 2472.03C758.298 2634.44 1197.24 3025.88 1770.2 3025.88C2343.54 3025.88 2684.63 2713.03 2727.3 2658.46C2769.68 2604.35 2739.75 2574.5 2696.91 2592.38H2696.92ZM2981.14 2435.41C2953.96 2400.03 2815.89 2393.43 2728.99 2404.1C2641.96 2414.47 2511.33 2467.66 2522.69 2499.59C2528.52 2511.56 2540.41 2506.19 2600.2 2500.82C2660.15 2494.83 2828.09 2473.64 2863.09 2519.39C2898.25 2565.45 2809.52 2784.88 2793.32 2820.27C2777.66 2855.66 2799.3 2864.78 2828.71 2841.21C2857.71 2817.65 2910.22 2756.64 2945.45 2670.29C2980.45 2583.47 3001.79 2462.36 2981.13 2435.41H2981.14Z" fill="#FF9900"/>
<path fill-rule="evenodd" clip-rule="evenodd" d="M2016.47 1609.62C2016.47 1735.99 2019.66 1841.38 1955.79 1953.61C1904.23 2044.86 1822.57 2100.97 1731.33 2100.97C1606.77 2100.97 1534.24 2006.07 1534.24 1866.02C1534.24 1589.54 1781.96 1539.37 2016.47 1539.37V1609.62ZM2343.57 2400.26C2322.13 2419.41 2291.11 2420.79 2266.93 2408.01C2159.26 2318.59 2140.1 2277.08 2080.79 2191.76C1902.87 2373.34 1776.95 2427.62 1546.1 2427.62C1273.28 2427.62 1060.68 2259.28 1060.68 1922.13C1060.68 1658.9 1203.49 1479.6 1406.49 1392.01C1582.6 1314.44 1828.5 1300.76 2016.47 1279.32V1237.35C2016.47 1160.24 2022.39 1069 1977.23 1002.4C1937.53 942.63 1861.8 917.993 1795.19 917.993C1671.56 917.993 1561.15 981.404 1534.24 1112.8C1528.76 1142 1507.32 1170.74 1478.12 1172.11L1163.33 1138.36C1136.87 1132.41 1107.68 1110.98 1114.98 1070.37C1187.51 688.975 1531.95 574 1840.35 574C1998.21 574 2204.41 615.976 2328.97 735.51C2486.82 882.864 2471.76 1079.49 2471.76 1293.46V1798.95C2471.76 1950.88 2534.72 2017.48 2594.03 2099.6C2615.01 2128.8 2619.58 2163.94 2593.11 2185.83C2526.96 2241.03 2409.25 2343.68 2344.48 2401.17L2343.56 2400.26" fill="black"/>
<path d="M2696.92 2592.38C1684.93 3074 1056.87 2671.04 654.834 2426.29C629.956 2410.86 587.672 2429.89 624.359 2472.03C758.298 2634.44 1197.24 3025.88 1770.2 3025.88C2343.54 3025.88 2684.63 2713.03 2727.3 2658.46C2769.68 2604.35 2739.75 2574.5 2696.91 2592.38H2696.92ZM2981.14 2435.41C2953.96 2400.03 2815.89 2393.43 2728.99 2404.1C2641.96 2414.47 2511.33 2467.66 2522.69 2499.59C2528.52 2511.56 2540.41 2506.19 2600.2 2500.82C2660.15 2494.83 2828.09 2473.64 2863.09 2519.39C2898.25 2565.45 2809.52 2784.88 2793.32 2820.27C2777.66 2855.66 2799.3 2864.78 2828.71 2841.21C2857.71 2817.65 2910.22 2756.64 2945.45 2670.29C2980.45 2583.47 3001.79 2462.36 2981.13 2435.41H2981.14Z" fill="#FF9900"/>
<path fill-rule="evenodd" clip-rule="evenodd" d="M2016.47 1609.62C2016.47 1735.99 2019.66 1841.38 1955.79 1953.61C1904.23 2044.86 1822.57 2100.97 1731.33 2100.97C1606.77 2100.97 1534.24 2006.07 1534.24 1866.02C1534.24 1589.54 1781.96 1539.37 2016.47 1539.37V1609.62ZM2343.57 2400.26C2322.13 2419.41 2291.11 2420.79 2266.93 2408.01C2159.26 2318.59 2140.1 2277.08 2080.79 2191.76C1902.87 2373.34 1776.95 2427.62 1546.1 2427.62C1273.28 2427.62 1060.68 2259.28 1060.68 1922.13C1060.68 1658.9 1203.49 1479.6 1406.49 1392.01C1582.6 1314.44 1828.5 1300.76 2016.47 1279.32V1237.35C2016.47 1160.24 2022.39 1069 1977.23 1002.4C1937.53 942.63 1861.8 917.993 1795.19 917.993C1671.56 917.993 1561.15 981.404 1534.24 1112.8C1528.76 1142 1507.32 1170.74 1478.12 1172.11L1163.33 1138.36C1136.87 1132.41 1107.68 1110.98 1114.98 1070.37C1187.51 688.975 1531.95 574 1840.35 574C1998.21 574 2204.41 615.976 2328.97 735.51C2486.82 882.864 2471.76 1079.49 2471.76 1293.46V1798.95C2471.76 1950.88 2534.72 2017.48 2594.03 2099.6C2615.01 2128.8 2619.58 2163.94 2593.11 2185.83C2526.96 2241.03 2409.25 2343.68 2344.48 2401.17L2343.56 2400.26" fill="black"/>
</svg>
