<svg width="692" height="182" viewBox="0 0 692 182" fill="none" xmlns="http://www.w3.org/2000/svg">
<path d="M374.006 142.184C339.007 167.981 288.277 181.745 244.6 181.745C183.358 181.745 128.224 159.094 86.5125 121.42C83.2354 118.458 86.1717 114.42 90.1042 116.727C135.119 142.918 190.777 158.674 248.27 158.674C287.045 158.674 329.7 150.652 368.92 134.004C374.845 131.488 379.8 137.884 374.006 142.184Z" fill="#FF9900"/>
<path d="M388.557 125.536C384.1 119.821 358.984 122.836 347.711 124.173C344.277 124.593 343.752 121.604 346.846 119.454C366.849 105.376 399.673 109.439 403.5 114.158C407.328 118.903 402.504 151.806 383.707 167.509C380.823 169.921 378.07 168.637 379.355 165.438C383.576 154.899 393.04 131.278 388.557 125.536" fill="#FF9900"/>
<path d="M348.497 20.066V6.38079C348.497 4.30966 350.07 2.92017 351.958 2.92017H413.227C415.193 2.92017 416.766 4.33588 416.766 6.38079V18.0997C416.74 20.066 415.088 22.6352 412.152 26.6988L380.403 72.0278C392.201 71.7394 404.654 73.4959 415.35 79.5258C417.762 80.889 418.418 82.8815 418.601 84.8478V99.4506C418.601 101.443 416.399 103.776 414.092 102.57C395.242 92.6866 370.205 91.6117 349.363 102.675C347.239 103.829 345.011 101.522 345.011 99.5292V85.6605C345.011 83.4321 345.037 79.6306 347.265 76.2487L384.047 23.5004H352.037C350.07 23.5004 348.497 22.1109 348.497 20.066" fill="white"/>
<path d="M124.999 105.454H106.359C104.576 105.323 103.16 103.986 103.029 102.282V6.61676C103.029 4.70292 104.628 3.18234 106.621 3.18234H124.003C125.812 3.26094 127.253 4.65048 127.385 6.38079V18.8862H127.725C132.261 6.80025 140.781 1.16364 152.264 1.16364C163.931 1.16364 171.219 6.80025 176.462 18.8862C180.972 6.80025 191.223 1.16364 202.207 1.16364C210.02 1.16364 218.567 4.38831 223.784 11.6242C229.683 19.6727 228.477 31.3654 228.477 41.6162L228.451 101.994C228.451 103.907 226.851 105.454 224.859 105.454H206.245C204.383 105.323 202.889 103.829 202.889 101.994V51.2902C202.889 47.2529 203.256 37.1856 202.365 33.3579C200.975 26.9348 196.807 25.1258 191.406 25.1258C186.897 25.1258 182.178 28.1408 180.264 32.9647C178.35 37.7886 178.534 45.8633 178.534 51.2902V101.994C178.534 103.907 176.934 105.454 174.942 105.454H156.328C154.44 105.323 152.972 103.829 152.972 101.994L152.946 51.2902C152.946 40.62 154.702 24.9161 141.463 24.9161C128.066 24.9161 128.591 40.2267 128.591 51.2902V101.994C128.591 103.907 126.991 105.454 124.999 105.454Z" fill="white"/>
<path d="M469.514 1.16364C497.173 1.16364 512.143 24.9161 512.143 55.1179C512.143 84.2972 495.6 107.447 469.514 107.447C442.354 107.447 427.567 83.6943 427.567 54.0954C427.567 24.3131 442.537 1.16364 469.514 1.16364V1.16364ZM469.672 20.6952C455.934 20.6952 455.069 39.414 455.069 51.0805C455.069 62.7732 454.885 87.7317 469.514 87.7317C483.96 87.7317 484.642 67.5971 484.642 55.3276C484.642 47.2529 484.301 37.6051 481.863 29.9497C479.765 23.2907 475.597 20.6952 469.672 20.6952" fill="white"/>
<path d="M548.008 105.454H529.446C527.585 105.323 526.09 103.829 526.09 101.994L526.064 6.30214C526.221 4.54561 527.768 3.18234 529.656 3.18234H546.933C548.558 3.26094 549.895 4.3621 550.262 5.85646V20.4854H550.603C555.82 7.40325 563.135 1.16364 576.007 1.16364C584.37 1.16364 592.524 4.17858 597.767 12.4369C602.644 20.0922 602.644 32.9647 602.644 42.2192V102.439C602.434 104.117 600.887 105.454 599.052 105.454H580.359C578.655 105.323 577.239 104.065 577.056 102.439V50.4775C577.056 40.017 578.262 24.7064 565.389 24.7064C560.854 24.7064 556.685 27.7475 554.614 32.3617C551.993 38.208 551.652 44.0282 551.652 50.4775V101.994C551.626 103.907 550 105.454 548.008 105.454" fill="white"/>
<path d="M55.2882 59.7583V55.7209C41.8128 55.7209 27.577 58.6048 27.577 74.4922C27.577 82.5407 31.7455 87.9939 38.9027 87.9939C44.1461 87.9939 48.8389 84.7692 51.8014 79.5258C55.4717 73.0765 55.2882 67.0204 55.2882 59.7583V59.7583ZM74.0857 105.192C72.8535 106.293 71.0708 106.372 69.6813 105.638C63.4941 100.499 62.393 98.1136 58.9848 93.211C48.7602 103.645 41.5244 106.765 28.2587 106.765C12.581 106.765 0.363953 97.0911 0.363953 77.7169C0.363953 62.5897 8.56982 52.2865 20.2363 47.2529C30.356 42.796 44.4869 42.0095 55.2882 40.7773V38.3654C55.2882 33.9347 55.6291 28.6913 53.0336 24.8637C50.7527 21.4293 46.4007 20.0136 42.5731 20.0136C35.4683 20.0136 29.1238 23.6577 27.577 31.2082C27.2624 32.886 26.0302 34.5377 24.3524 34.6164L6.26274 32.6763C4.74216 32.3355 3.06428 31.1033 3.48375 28.77C7.65223 6.85272 27.4459 0.246063 45.1685 0.246063C54.2396 0.246063 66.0896 2.65801 73.2468 9.52682C82.3178 17.9949 81.4526 29.2943 81.4526 41.59V70.6383C81.4526 79.3685 85.0706 83.1962 88.4788 87.9152C89.6847 89.5931 89.9469 91.6118 88.4263 92.8702C84.6249 96.0424 77.8609 101.941 74.1381 105.245L74.0857 105.192" fill="white"/>
<path d="M296.924 59.7583V55.7209C283.449 55.7209 269.213 58.6048 269.213 74.4922C269.213 82.5407 273.382 87.9939 280.539 87.9939C285.782 87.9939 290.475 84.7692 293.437 79.5258C297.108 73.0765 296.924 67.0204 296.924 59.7583V59.7583ZM315.722 105.192C314.49 106.293 312.707 106.372 311.317 105.638C305.13 100.499 304.029 98.1136 300.621 93.211C290.396 103.645 283.16 106.765 269.895 106.765C254.217 106.765 242 97.0911 242 77.7169C242 62.5897 250.206 52.2865 261.872 47.2529C271.992 42.796 286.123 42.0095 296.924 40.7773V38.3654C296.924 33.9347 297.265 28.6913 294.67 24.8637C292.389 21.4293 288.037 20.0136 284.209 20.0136C277.104 20.0136 270.76 23.6577 269.213 31.2082C268.898 32.886 267.666 34.5377 265.988 34.6164L247.899 32.6763C246.378 32.3355 244.7 31.1033 245.12 28.77C249.288 6.85272 269.082 0.246063 286.805 0.246063C295.876 0.246063 307.726 2.65801 314.883 9.52682C323.954 17.9949 323.089 29.2943 323.089 41.59V70.6383C323.089 79.3685 326.707 83.1962 330.115 87.9152C331.321 89.5931 331.583 91.6118 330.062 92.8702C326.261 96.0424 319.497 101.941 315.774 105.245L315.722 105.192" fill="white"/>
<path d="M626.295 103.5C624.917 103.5 623.735 103.015 622.75 102.045C621.765 101.076 621.28 99.8939 621.295 98.5C621.28 97.1364 621.765 95.9697 622.75 95C623.735 94.0303 624.917 93.5455 626.295 93.5455C627.629 93.5455 628.788 94.0303 629.773 95C630.773 95.9697 631.28 97.1364 631.295 98.5C631.28 99.4242 631.038 100.265 630.568 101.023C630.114 101.78 629.508 102.386 628.75 102.841C628.008 103.28 627.189 103.5 626.295 103.5ZM639.79 103V68.0909H648.017V103H639.79ZM643.926 63.1364C642.623 63.1364 641.502 62.7045 640.562 61.8409C639.623 60.9621 639.153 59.9091 639.153 58.6818C639.153 57.4394 639.623 56.3864 640.562 55.5227C641.502 54.6439 642.623 54.2045 643.926 54.2045C645.244 54.2045 646.366 54.6439 647.29 55.5227C648.229 56.3864 648.699 57.4394 648.699 58.6818C648.699 59.9091 648.229 60.9621 647.29 61.8409C646.366 62.7045 645.244 63.1364 643.926 63.1364ZM664.705 82.5455V103H656.477V68.0909H664.341V74.0227H664.75C665.553 72.0682 666.833 70.5152 668.591 69.3636C670.364 68.2121 672.553 67.6364 675.159 67.6364C677.568 67.6364 679.667 68.1515 681.455 69.1818C683.258 70.2121 684.652 71.7045 685.636 73.6591C686.636 75.6136 687.129 77.9848 687.114 80.7727V103H678.886V82.0455C678.886 79.7121 678.28 77.8864 677.068 76.5682C675.871 75.25 674.212 74.5909 672.091 74.5909C670.652 74.5909 669.371 74.9091 668.25 75.5455C667.144 76.1667 666.273 77.0682 665.636 78.25C665.015 79.4318 664.705 80.8636 664.705 82.5455Z" fill="white"/>
</svg>
